<svg xmlns="http://www.w3.org/2000/svg" width="93" height="136" viewBox="0 0 93 136" fill="none">
  <path d="M54.2505 117.511V126.044L60.2504 128.177L66.2505 126.044V117.511L63.2509 117.777L61.3417 117.947L60.2504 118.044L54.2505 117.511Z" fill="#646464" fill-opacity="0.25"/>
  <path d="M22.7509 95.9004L25.2505 101.677L37.2505 99.4655C31.7983 98.9929 26.9662 97.7469 22.7509 95.9004Z" fill="#D8CEC3"/>
  <path fill-rule="evenodd" clip-rule="evenodd" d="M42.2508 31.1774V92.1774C49.4531 92.1774 55.4055 90.3837 60.1158 87.4114C64.9123 71.6762 64.924 50.0617 59.4709 35.6314C54.857 32.8461 49.1147 31.1774 42.2508 31.1774ZM58.2505 45.1774C58.2505 42.6774 55.2505 37.1774 51.2505 36.1774C52.5839 39.1774 54.1591 40.8118 55.2505 45.1774C55.7505 47.1774 58.2505 47.6774 58.2505 45.1774Z" fill="#FCD4B7"/>
  <path d="M42.2508 107.389V99.6774C40.5298 99.6774 38.863 99.6053 37.2505 99.4655L42.2508 107.389Z" fill="#FFA25E"/>
  <path d="M42.2508 107.389L38.6564 112.59C38.3939 112.97 38.2709 113.429 38.3082 113.889L39.7282 131.402C39.7428 131.582 39.8061 131.755 39.9112 131.902L41.437 134.038C41.8359 134.597 42.6657 134.597 43.0645 134.038L44.5899 131.902C44.695 131.755 44.7582 131.582 44.7729 131.402L46.1928 113.889C46.2301 113.429 46.1072 112.97 45.8448 112.59L42.2508 107.389Z" fill="#FF974B"/>
  <path d="M61.3417 113.177V117.947L63.2509 117.777V111.626C63.2509 111.626 61.3417 111.65 61.3417 113.177Z" fill="#FFA25E"/>
  <path d="M42.2508 92.1774C0.250774 92.1774 0.750828 31.1774 42.2508 31.1774V24.6774C38.303 24.6774 34.6358 25.071 31.2505 25.8011C30.9144 25.8735 30.5811 25.9494 30.2505 26.0284C-5.80578 34.6528 -8.78852 82.0847 22.7509 95.9004C26.9662 97.7469 31.7983 98.9929 37.2505 99.4655C38.863 99.6053 40.5298 99.6774 42.2508 99.6774V92.1774Z" fill="#FFBC8B"/>
  <path d="M42.2508 92.1774V99.6774V107.389C48.687 107.27 53.7594 102.252 57.3462 94.6774C58.3982 92.4557 59.3225 90.0139 60.1158 87.4114C55.4055 90.3837 49.4531 92.1774 42.2508 92.1774Z" fill="#D8CEC3"/>
  <path d="M42.2508 20.1774V24.6774V31.1774C49.1147 31.1774 54.857 32.8461 59.4709 35.6314C56.0014 26.4503 50.3198 20.1774 42.2508 20.1774Z" fill="#D8CEC3"/>
  <path fill-rule="evenodd" clip-rule="evenodd" d="M42.2508 31.1774C0.750828 31.1774 0.250774 92.1774 42.2508 92.1774V31.1774ZM19.5315 75.3948C19.9332 78.1138 25.5096 85.0695 30.1219 85.4994C28.156 82.4558 25.5886 79.2184 23.6725 74.6497C22.7947 72.5567 19.1298 72.6758 19.5315 75.3948ZM18.2505 71.1774C17.3977 72.5089 15.7505 65.6774 17.2505 65.1774C18.7505 64.6774 20.4505 67.5774 21.2505 69.1774C22.2505 71.1774 19.5315 69.1774 18.2505 71.1774Z" fill="#ECE0D3"/>
  <path d="M42.2508 31.1774C0.750828 31.1774 0.250774 92.1774 42.2508 92.1774M42.2508 31.1774V24.6774M42.2508 31.1774C49.1147 31.1774 54.857 32.8461 59.4709 35.6314M42.2508 31.1774V92.1774M42.2508 92.1774V99.6774M42.2508 92.1774C49.4531 92.1774 55.4055 90.3837 60.1158 87.4114M42.2508 107.389V24.6774M42.2508 107.389L37.2505 99.4655M42.2508 107.389L38.6564 112.59C38.3939 112.97 38.2709 113.429 38.3082 113.889L39.7282 131.402C39.7428 131.582 39.8061 131.755 39.9112 131.902L41.437 134.038C41.8359 134.597 42.6657 134.597 43.0645 134.038L44.5899 131.902C44.695 131.755 44.7582 131.582 44.7729 131.402L46.1928 113.889C46.2301 113.429 46.1072 112.97 45.8448 112.59L42.2508 107.389ZM42.2508 107.389C48.687 107.27 53.7594 102.252 57.3462 94.6774M42.2508 107.389V99.6774M42.2508 24.6774V20.1774C50.3198 20.1774 56.0014 26.4503 59.4709 35.6314M42.2508 24.6774C38.303 24.6774 34.6358 25.071 31.2505 25.8011M42.2508 99.6774C40.5298 99.6774 38.863 99.6053 37.2505 99.4655M22.7509 95.9004C1.25055 103.177 2.75054 128.177 2.75054 135.177M22.7509 95.9004C-8.78852 82.0847 -5.80578 34.6528 30.2505 26.0284M22.7509 95.9004C23.727 98.1564 24.2743 99.4213 25.2505 101.677M22.7509 95.9004C26.9662 97.7469 31.7983 98.9929 37.2505 99.4655M22.7509 95.9004L25.2505 101.677M37.2505 99.4655L25.2505 101.677M31.2505 25.8011L24.2505 4.17744M31.2505 25.8011C30.9144 25.8735 30.5811 25.9494 30.2505 26.0284M24.2505 4.17744L30.2505 26.0284M24.2505 4.17744C26.2505 3.17747 25.0944 0.255487 23.2505 1.17744C21.2505 2.17743 22.5188 5.04328 24.2505 4.17744ZM57.3462 94.6774C80.7505 103.177 78.7505 127.177 78.7505 135.177M57.3462 94.6774C58.3982 92.4557 59.3225 90.0139 60.1158 87.4114M61.3417 117.947L60.2504 118.044L54.2505 117.511V126.044L60.2504 128.177L66.2505 126.044V117.511L63.2509 117.777M61.3417 117.947V113.177C61.3417 111.65 63.2509 111.626 63.2509 111.626V117.777M61.3417 117.947L63.2509 117.777M60.1158 87.4114C78.3307 75.9173 77.9699 46.7989 59.4709 35.6314M60.1158 87.4114C64.9123 71.6762 64.924 50.0617 59.4709 35.6314M51.2505 36.1774C55.2505 37.1774 58.2505 42.6774 58.2505 45.1774C58.2505 47.6774 55.7505 47.1774 55.2505 45.1774C54.1591 40.8118 52.5839 39.1774 51.2505 36.1774ZM30.1219 85.4994C25.5096 85.0694 19.9332 78.1138 19.5315 75.3948C19.1298 72.6758 22.7947 72.5567 23.6725 74.6497C25.5886 79.2184 28.156 82.4558 30.1219 85.4994ZM17.2505 65.1774C15.7505 65.6774 17.3977 72.5089 18.2505 71.1774C19.5315 69.1774 22.2505 71.1774 21.2505 69.1774C20.4505 67.5774 18.7505 64.6774 17.2505 65.1774Z" stroke="#343434" stroke-linecap="round" stroke-linejoin="round"/>
  <path d="M75.4821 24.0619L69.9989 27.9669L72.8541 33.8698M86.0383 26.8905L88.8345 33.0138L83.4103 36.6983M84.1927 25.223L75.7743 35.3907" stroke="#FFB37C" stroke-linecap="round" stroke-linejoin="round"/>
  <circle cx="79.2505" cy="30.1775" r="12.5" stroke="#696969"/>
</svg>