<svg width="107" height="107" viewBox="0 0 107 107" fill="none" xmlns="http://www.w3.org/2000/svg">
<path d="M23.4615 8.2002L37.1154 36.7762C42.0172 34.2214 47.5899 32.777 53.5 32.777C73.1061 32.777 89 48.6709 89 68.277C89 87.8831 73.1061 103.777 53.5 103.777C33.8939 103.777 18 87.8831 18 68.277C18 55.137 25.139 43.6646 35.75 37.5265L23.4615 8.2002ZM23.4615 8.2002C26.4889 6.56366 24.739 1.78153 21.9478 3.2904C18.9204 4.92699 20.8402 9.61723 23.4615 8.2002Z" stroke="#696969" stroke-width="5"/>
<path d="M43.2094 51.8383L28.236 62.5017L36.0329 78.6212M72.0359 59.5623L79.6715 76.2838L64.8594 86.3453M66.9959 55.009L44.0072 82.7744" stroke="#FFB37C" stroke-width="5" stroke-linecap="round" stroke-linejoin="round"/>
</svg>
